PathFileType	4	(X/Y/Z)	C:/Users/beibeiliu/ov580/test_trc/capture2\sequence.26_training_dense_right.trc
DataRate	CameraRate	NumFrames	NumMarkers	Units	OrigDataRate	OrigDataStartFrame	OrigNumFrames
120	120	25	19	mm	120	96	383
Frame#	Time	ThumbCMC			ThumbMCP			ThumbIP			ThumbTip			IndexMCP			IndexPIP			IndexTip			MiddleMCP			MiddlePIP			MiddleTip			RingMCP			RingPIP			RingTip			PinkyMCP			PinkyPIP			PinkyTip			BackHand1			BackHand2			BackHand3	
		X0	Y0	Z0	X1	Y1	Z1	X2	Y2	Z2	X3	Y3	Z3	X4	Y4	Z4	X5	Y5	Z5	X6	Y6	Z6	X7	Y7	Z7	X8	Y8	Z8	X9	Y9	Z9	X10	Y10	Z10	X11	Y11	Z11	X12	Y12	Z12	X13	Y13	Z13	X14	Y14	Z14	X15	Y15	Z15	X16	Y16	Z16	X17	Y17	Z17	X18	Y18	Z18	
95	0.791667	81.9078	63.9135	40.3268	64.6597	40.173	25.1923	66.4848	16.7826	1.77925	84.2351	1.54262	-4.76336	109.515	42.3542	-24.2576	110.945	21.2006	-42.8278	111.886	2.99224	-57.8936	116.199	18.4302	-10.7506	92.5942	-1.39986	4.1277	92.042	20.9435	33.6512	121.786	9.27594	1.64622	102.056	-0.926555	23.1443	102.4	25.909	44.4316	132.55	5.67859	14.7703	111.544	2.70853	36.5853	114.292	30.0459	49.0837	146.576	54.2493	25.2543	144.396	67.005	53.8486	121.221	74.9378	29.222	
96	0.8	82.3507	68.1227	38.5834	69.5292	42.044	23.7886	65.7183	22.4101	6.32172	80.5544	2.08884	-4.57374	108.832	42.8141	-25.8446	106.844	25.3302	-42.3991	112.927	2.75995	-55.0174	108.301	16.8426	-12.9548	90.6145	-0.232044	6.5987	87.2927	23.271	32.4871	120.737	8.19737	4.25646	97.0806	3.18955	27.3908	98.7068	32.3912	41.9565	132.895	2.19128	17.127	106.808	5.64139	34.4724	110.235	30.0828	51.3444	145.324	53.3744	26.6461	143.26	67.6536	52.1162	121.377	78.5173	31.8409	
97	0.808333	82.5292	70.0885	38.6747	69.2366	46.4227	24.8566	60.7469	26.2251	5.84841	78.4425	4.76266	-3.77941	111.316	42.3461	-23.9676	107.557	23.2528	-41.1943	109.77	2.28491	-55.6375	106.419	18.2561	-13.6872	85.3746	4.44963	3.74975	87.1032	29.0531	32.6673	114.624	6.77838	4.1172	96.4517	2.18252	26.3414	100.71	31.0019	44.8216	127.742	5.12721	16.1282	105.745	4.52588	38.7323	111.522	33.6022	52.1342	146.963	49.6655	25.3827	145.825	66.9081	51.6856	121.978	78.309	29.1231	
98	0.816667	83.4076	73.7117	42.5977	65.3526	50.1263	28.2214	63.2118	29.2774	8.79316	74.8215	5.86555	-4.60742	111.059	42.9051	-22.446	108.405	23.2587	-39.0528	105.995	3.91329	-57.6505	107.275	18.6756	-11.7249	82.9884	6.03655	7.64541	83.6751	29.608	31.6684	115.729	9.75799	4.95917	93.5868	4.31274	25.2678	97.6812	31.1461	44.1544	128.783	2.3501	18.4253	101.001	7.46715	35.2899	108.854	33.0306	49.578	144.414	52.0221	27.3329	146.447	66.4735	56.3602	121.523	78.5468	28.0052	
99	0.825	83.7599	75.2402	42.0824	66.3653	51.0646	29.5956	61.2905	29.5063	8.17478	72.4674	7.0883	-3.67232	106.465	45.8506	-22.3906	103.609	27.6661	-38.5714	103.407	2.9432	-54.7459	102.833	22.2724	-11.8592	82.169	7.90474	6.2397	82.712	33.1099	32.7936	111.171	10.4965	5.64996	91.5973	6.38155	29.3423	98.7963	32.9763	46.8251	123.637	2.13312	18.4582	101.938	5.19411	40.1289	105.974	35.1098	51.8873	144.183	49.4791	26.4256	147.978	65.5232	56.368	121.437	78.8121	31.3413	
100	0.833333	85.0397	76.0277	44.4851	62.7184	54.2352	30.2793	56.884	33.1682	13.0768	72.7884	11.3041	1.24055	106.896	44.9981	-20.0791	101.932	26.2484	-39.6452	101.682	6.00882	-50.5849	102.352	23.0308	-8.4815	80.0756	9.18474	10.0558	82.6588	33.5813	34.6701	110.932	12.149	5.9913	87.4688	8.85163	28.227	97.578	38.3587	46.3836	122.695	6.62535	18.7147	98.6926	6.93025	36.183	106.29	34.6961	53.8004	141.225	52.7526	27.3538	147.265	65.1626	55.647	123.136	80.4827	31.3	
101	0.841667	82.8838	77.9766	41.7142	65.1911	54.7692	30.1662	55.4011	34.0738	10.1392	64.0693	14.0485	1.41087	102.409	46.9518	-23.2446	98.1211	28.7637	-38.2719	96.6598	3.78898	-51.5305	98.4958	22.6833	-8.73411	76.3946	12.1102	8.0044	81.4611	38.8398	36.1037	105.014	14.6238	5.09717	84.9759	10.8888	28.4414	93.0604	38.7466	46.292	119.614	9.62308	19.467	96.108	10.3168	38.7878	102.513	37.5791	54.4789	141.733	52.1468	30.4199	143.584	67.1989	56.7135	123.721	79.3844	31.7143	
102	0.85	86.9138	78.9677	43.8467	62.3517	59.9171	31.6707	52.7631	37.6029	11.9546	61.7273	17.5265	5.61494	103.006	47.3473	-19.4016	97.6264	28.1157	-35.6219	92.9778	5.07652	-49.4798	98.255	24.5739	-7.61029	73.2134	13.0188	11.6044	82.4472	39.8991	38.6231	105.22	14.0087	7.99846	81.5207	11.8978	28.3576	89.6858	38.8109	48.0121	112.903	7.29271	20.6085	93.0303	10.8378	40.6532	101.268	37.1014	56.312	140.478	49.7149	25.4798	146.636	65.8861	57.4755	125.414	78.7881	32.4825	
103	0.858333	86.3491	84.607	44.6561	63.4327	64.1745	32.5382	54.0111	43.7445	15.1866	60.1696	18.2315	2.93677	102.471	43.9422	-19.6764	92.079	26.9323	-37.8341	84.7128	6.17886	-50.9872	96.3293	23.9977	-5.41184	68.5893	18.0268	10.7786	75.14	41.6985	36.0846	98.523	14.2984	7.66659	78.656	13.0603	29.1919	88.1735	38.908	49.2274	108.627	5.35332	22.598	88.2287	12.0728	40.4009	97.1866	39.323	57.0358	141.334	46.6154	27.5641	146.226	65.0441	55.7341	124.385	82.031	31.1768	
104	0.866667	91.6392	83.7732	45.8736	61.4006	69.2038	30.6841	52.9869	47.955	14.7893	55.9182	25.5815	6.44899	98.951	49.0484	-20.3693	88.0581	28.8701	-38.0494	80.8394	5.75695	-46.7027	88.9757	27.3528	-8.69266	65.4698	18.963	11.0663	74.2526	42.107	38.152	95.1991	13.7024	9.02545	71.7382	18.9511	29.6664	87.9858	41.1417	50.3423	106.008	6.42504	22.7418	83.9225	14.2176	42.9762	96.7188	44.7682	55.4979	140.554	46.2777	30.0659	146.5	60.9792	57.8389	127.466	76.5697	33.7267	
105	0.875	93.0089	87.2544	43.1541	62.3239	73.4891	31.3389	48.7873	52.7156	13.8762	52.7675	27.9812	5.44763	97.0823	47.888	-21.1862	85.055	31.6406	-35.7043	75.6181	11.3069	-46.141	86.9753	28.5894	-6.94371	62.0458	22.6004	8.66233	71.1555	46.6084	37.2792	87.7025	17.2375	8.30851	67.5503	24.079	29.538	81.2718	44.885	48.3468	99.6695	8.10626	23.3289	78.6291	21.2583	42.7038	94.0077	44.4142	55.3212	136.803	42.8044	27.9525	145.509	60.4384	54.8611	126.203	77.2832	29.6157	
106	0.883333	93.2293	93.2879	42.3591	63.1579	80.0376	31.1867	48.8469	58.9591	13.8323	48.3236	36.7772	7.69159	96.2564	47.1089	-19.0617	84.4907	32.7242	-32.8283	70.7535	12.0495	-46.6155	83.2178	29.0701	-5.79949	56.7553	28.4771	11.6442	71.2908	52.8652	38.8565	84.0413	20.0034	8.00146	63.9545	26.3932	28.4131	78.3643	48.8063	46.6571	95.556	8.6666	25.1033	75.0906	23.2696	46.0171	92.4461	43.7555	58.2692	136.892	37.7592	28.6239	146.678	54.4349	56.8362	128.871	75.1185	28.079	
107	0.891667	96.043	94.8609	42.645	67.156	80.8416	31.2027	49.4081	64.1195	13.5723	43.929	42.0259	4.92543	95.8016	51.8875	-20.9229	79.8947	37.8632	-38.6771	64.2463	16.7379	-49.8087	78.3562	34.3726	-8.66421	53.162	36.886	8.78404	66.8726	52.8035	37.9856	80.4691	24.0782	8.23935	59.7762	31.4494	32.4653	77.4058	52.8192	46.5399	86.1171	11.8209	24.7996	68.5805	25.7161	42.1785	89.1945	50.4233	54.3547	132.399	36.4559	29.6399	143.343	53.3712	52.6245	130.268	74.9552	29.6513	
108	0.9	99.6624	94.4322	42.7574	66.1395	87.0343	28.134	46.0732	73.9385	13.0318	43.2217	48.0829	4.8695	96.1	54.8191	-20.35	78.6226	39.8624	-40.0145	62.6808	24.1819	-53.0256	81.2638	40.9128	-8.41757	51.2441	38.9754	8.16126	65.0913	60.3848	35.2463	74.5883	27.0204	7.48383	56.3237	36.0912	30.5791	78.847	55.9032	49.042	79.3663	16.6883	23.3642	65.2993	31.6496	39.7195	88.2196	52.548	55.7001	129.255	36.1492	31.0004	141.88	53.7134	52.2587	132.31	74.2591	28.4413	
109	0.908333	100.257	98.3967	41.1276	69.544	91.3396	30.0181	47.68	76.0093	11.4204	43.168	51.9669	3.69319	96.5374	60.7757	-21.3062	80.83	48.1814	-39.2447	63.8525	29.8756	-56.5595	75.9506	40.1582	-9.23045	50.2609	48.3032	4.48011	64.2277	61.8649	35.5557	74.295	27.7765	7.7057	54.5523	38.0528	27.1306	75.4228	57.8916	46.9771	79.3676	20.574	19.8704	63.634	36.5252	40.3712	86.9826	54.3786	51.367	127.44	38.2291	29.36	141.701	49.9309	53.7535	130.753	74.0292	31.2853	
110	0.916667	99.8318	98.8991	37.7564	67.7497	92.8495	28.6	47.2314	83.0882	11.9799	40.0229	55.7928	-0.297125	97.8394	59.8105	-20.7867	80.3494	49.4447	-42.8713	66.5975	38.552	-59.9486	79.5274	47.1001	-12.3236	49.7346	50.3578	6.67729	65.8134	65.7344	34.6818	76.4562	31.4014	5.28075	54.1272	46.9742	24.6699	72.7756	60.7704	43.2945	78.2428	21.0997	18.3209	62.7347	38.929	35	86.1401	55.2848	53.3445	127.263	38.1955	29.7194	139.643	52.0523	56.1047	132.134	74.4708	27.5689	
111	0.925	100.513	96.2744	39.8281	69.235	92.7992	30.1442	48.6474	84.6829	12.6348	41.383	59.209	0.753988	98.6585	63.0194	-23.8193	82.8676	54.5857	-45.6699	68.045	44.2814	-63.2288	79.6481	46.2908	-12.7519	50.5127	52.5156	-0.28484	67.0631	68.5861	32.9921	75.3783	32.0582	3.85364	54.935	46.5712	21.494	75.6591	62.4563	43.7957	81.464	23.4331	17.1754	62.5805	38.9107	34.3055	83.1166	54.939	51.2331	126.327	42.0505	24.0743	139.753	48.8997	54.0402	133.911	77.0778	30.9577	
112	0.933333	100.983	97.7578	39.5551	70.509	90.5157	27.2484	50.3164	83.3535	11.5729	41.255	59.1347	-1.68163	99.3994	67.7967	-24.5526	84.7983	56.0082	-47.1188	73.135	46.3246	-62.2753	77.0193	49.9345	-15.557	51.2764	50.2219	-1.28058	64.0858	69.6611	30.1075	75.1544	35.7196	0.0723167	54.3992	47.1871	21.2472	76.2709	61.9472	44.0307	80.3761	22.0715	16.7649	61.6833	38.0766	36.2406	84.8974	55.5393	49.7945	128.376	39.1893	23.7481	140.187	50.3872	52.5121	131.366	76.2283	29.7444	
113	0.941667	101.964	100.741	40.7586	69.0699	96.4103	28.7257	49.883	83.5773	7.10159	41.4681	62.8848	-2.93122	102.062	65.7068	-25.0248	88.9238	61.4526	-46.4751	75.5591	44.3504	-67.554	81.6384	45.5841	-13.6694	51.501	50.6009	1.73787	61.6056	65.9187	28.4367	76.4987	36.2183	-0.418881	54.3207	42.853	21.3	75.5848	62.3525	43.1146	78.1958	22.5348	15.133	62.7616	40.8454	32.1847	82.9123	54.2549	50.5573	127.094	40.4964	23.6187	139.365	52.8218	55.2297	132.579	77.3334	31.4583	
114	0.95	101.24	98.225	38.3928	71.8819	94.0414	27.9233	54.3534	83.1557	10.1712	44.8217	60.7245	-5.62333	102.252	66.2947	-26.8975	89.4647	57.6737	-49.0031	79.1202	43.8543	-67.9076	81.1596	43.8503	-16.3759	53.7072	50.9727	-5.05501	61.4694	66.1287	26.5954	77.4138	35.5357	-2.63033	54.9119	44.3714	20.1517	71.5996	58.1417	42.0695	80.9421	19.3374	13.8963	62.8492	37.9771	32.4554	82.8531	52.2822	49.7954	130.519	39.3863	27.4533	140.319	52.0217	49.6974	132.794	77.7357	31.2311	
115	0.958333	101.982	98.7923	41.7338	70.1728	94.6671	26.708	52.4039	84.3221	8.03294	46.075	60.2786	-4.63911	104.676	63.6385	-25.3053	91.9168	57.0313	-50.3821	80.496	46.3171	-72.3936	83.4285	46.2745	-18.3226	52.3654	48.289	-2.01379	63.2091	67.478	27.8657	81.7318	30.7731	-0.808336	56.4277	42.614	15.1304	72.9214	56.9715	41.1097	82.3543	21.863	11.8923	64.799	37.8154	28.8372	82.3976	54.2336	45.6349	130.42	40.3454	26.8912	140.017	51.9041	52.7198	134.962	73.6146	28.4274	
116	0.966667	101.267	93.6484	38.6495	69.2	90.1706	25.0983	50.2379	80.8251	5.06614	45.3114	60.8304	-6.39372	105.245	64.3377	-26.6093	93.0794	57.6352	-53.1616	82.9126	41.4283	-71.8565	83.0195	47.1626	-20.363	54.2752	45.7491	-3.3332	62.4201	60.7998	27.4663	79.3663	32.2924	-3.68285	57.3419	38.9668	15.6795	72.8024	55.2	38.7849	84.7451	22.1425	9.04728	64.9265	31.5884	25.9682	83.319	53.5715	43.6054	130.438	41.4656	21.3108	143.294	54.0126	52.9751	135.225	78.3846	29.6527	
117	0.975	99.0803	92.1696	38.8144	67.7122	89.3703	25.4628	53.9231	74.8134	5.73706	44.4655	56.0508	-11.2081	105.434	66.9402	-31.303	95.1217	58.4019	-52.3206	86.4327	42.5747	-72.1274	85.7722	45.5959	-20.776	57.6016	44.448	-11.5726	61.4835	58.6252	24.7464	82.993	28.9277	-4.18343	60.4625	37.029	13.8393	76.163	57.2317	38.1088	84.983	18.3365	9.04565	66.9374	29.2887	25.1518	84.9017	52.3787	44.4449	132.066	43.4606	20.9394	141.573	50.9742	53.7582	131.889	76.9767	25.9088	
118	0.983333	97.3151	94.5156	40.4131	68.1535	83.2879	22.3122	51.6602	74.0642	5.2759	47.1053	53.4629	-12.2797	107.621	68.3662	-27.3807	98.9347	59.0726	-51.1584	90.7012	44.7146	-72.8895	91.1652	45.7511	-20.2277	60.0899	40.7952	-13.1304	61.9603	52.1081	23.5493	84.1913	26.9241	-5.80258	62.4678	34.6	15.9925	75.5537	54.9662	36.4227	93.8508	17.3889	8.23755	70.4846	27.8541	28.6474	84.0645	47.7596	43.8783	136.318	43.8009	23.3795	142.642	52.4376	53.1463	133.416	77.6173	26.3819	
119	0.991667	94.5851	91.2542	39.9505	66.627	81.4923	22.9751	54.1665	69.5225	4.28781	48.766	50.7365	-12.0715	108.952	69.5255	-26.328	101.967	55.9218	-50.8298	96.0227	43.65	-71.1896	92.3074	43.3689	-23.5545	62.6332	37.52	-13.8661	62.2744	46.4469	19.8049	91.707	29.6726	-7.53786	65.5193	31.0374	12.9139	75.1093	49.6792	33.3179	98.9931	14.1706	7.57278	73.722	26.2105	23.9226	86.214	46.4408	42.739	136.232	47.1667	24.9288	143.123	56.6674	50.5034	129.995	81.3036	28.8895	
